<svg xmlns="http://www.w3.org/2000/svg" viewBox="0 0 256 256"><defs><style>.cls-1{fill:#076aad;}.cls-2{fill:#79cef4;}</style></defs><g id="レイヤー_2" data-name="レイヤー 2"><g id="レイヤー_1-2" data-name="レイヤー 1"><circle class="cls-1" cx="128" cy="128" r="128"/><path class="cls-2" d="M178.91,105.31A37.49,37.49,0,0,1,148.7,45.6,37.5,37.5,0,1,0,201.12,98,37.31,37.31,0,0,1,178.91,105.31Z"/><path class="cls-2" d="M165.87,144.35c-30.3-2.33-62-25.61-62-56,0-12.2,1.28-29.88,8-39-13.6,10-19,31.81-19,50,0,30.39,27,53.2,57,58,25,4,52-16.4,62-30C202.74,134.07,178.87,145.35,165.87,144.35Z"/><path class="cls-2" d="M70.41,61.31c-37,72,41,177,136,107-54,74-127,32-141,12s-23-33-21-68,28-52,28-52"/></g></g></svg>