<svg xmlns="http://www.w3.org/2000/svg" viewBox="0 0 285 278"><defs><style>.cls-1{fill:#002732;}.cls-2{fill:#00d3ff;}</style></defs><g id="レイヤー_2" data-name="レイヤー 2"><g id="レイヤー_1-2" data-name="レイヤー 1"><rect class="cls-1" x="5" y="5" width="275" height="268"/><path class="cls-2" d="M275,10V268H10V10H275M285,0H0V278H285V0Z"/><path class="cls-2" d="M68.5,63.5v131h21v-47s59,8,59-44S90.5,64.5,68.5,63.5Zm22,64v-47s36-7,36,24S90.5,127.5,90.5,127.5Z"/><path class="cls-2" d="M214,118.5v-18s-17.45-11.94-41.79-.61a19.39,19.39,0,0,0-8,6.74c-7,10.47-7.72,29,4.81,39.87,4.59,4.59,19.28,9.18,26.31,16.08a7.17,7.17,0,0,1,2.07,4.23c1,7.86-2.8,8.77-7.38,9.69-5,1-22,1-31-7v21s10.07,10.91,38.68,3.51a27.39,27.39,0,0,0,14.81-9.81c9.21-11.93,11.21-23.85.61-35.78a27.07,27.07,0,0,0-8.84-6.51A95.39,95.39,0,0,1,181.1,126.5a6.2,6.2,0,0,1-2-3.48C177.25,113,203.79,112,214,118.5Z"/></g></g></svg>