<svg xmlns="http://www.w3.org/2000/svg" viewBox="0 0 232 232"><defs><style>.cls-1{fill:#fff;}.cls-2{fill:#c00;}</style></defs><g id="レイヤー_2" data-name="レイヤー 2"><g id="レイヤー_1-2" data-name="レイヤー 1"><rect class="cls-1" width="232" height="232" rx="28.4"/><path class="cls-2" d="M47,180h70S97,84,187,61V54S120.72,54,84,97C43.1,144.93,47,180,47,180Z"/><polygon class="cls-2" points="37 144 52.66 148.69 56 134 42 129 37 144"/><polygon class="cls-2" points="63 92 75 102 87 90 75 81 63 92"/><polygon class="cls-2" points="102 60 111 70 123 63 113 53 102 60"/><polygon class="cls-2" points="147 47 149 55 161 53 159 47 147 47"/><polygon class="cls-2" points="161 79 167 87 174 81 171 74 161 79"/><polygon class="cls-2" points="145 92 152 102 147 110 138 98 145 92"/><polygon class="cls-2" points="128 125 138 131 138 143 123 134 128 125"/><polygon class="cls-2" points="123 162 136 168 136 178 123 175 123 162"/></g></g></svg>