<svg xmlns="http://www.w3.org/2000/svg" viewBox="0 0 408 408"><defs><style>.cls-1{fill:#eb5745;}.cls-2{fill:#fff;}</style></defs><g id="レイヤー_2" data-name="レイヤー 2"><g id="レイヤー_1-2" data-name="レイヤー 1"><rect class="cls-1" width="408" height="408" rx="48.37"/><path class="cls-2" d="M292.17,171.17l-35-35h-108s-25,24-32,32,0,16,0,16,72,79,80,85,14,0,14,0,77-79,81-87S292.17,171.17,292.17,171.17Zm-43.25-23-9,9-10-9Zm1,27H227.17L238,164.39Zm-15-14.74-14,12-12-10,16-13ZM217,176.17H191.8l12-10Zm-.87-29-12,11-13.29-11Zm-17,15-12,10-14-12,10-11Zm-18,13H157.92l11-11Zm-4-28-9,9-10-9Zm-26,3,13,11-14,15h-24Zm-21,32h20l35,57Zm28,0h27l12,67Zm46,69-13-69h26Zm19.6-69h27l-39,67Zm0,57,35-57h20Zm33.14-63-14-15,13-11,25,26Z"/></g></g></svg>